<svg width="263" height="216" viewBox="0 0 263 216" fill="none" xmlns="http://www.w3.org/2000/svg">
<rect x="0.25823" y="0.25823" width="262.362" height="215.364" fill="#C4C4C4" stroke="black" stroke-width="0.51646" stroke-dasharray="5.16 5.16"/>
<g clip-path="url(#clip0)">
<path d="M100.906 70.1557V60.1465H107.579V70.1557H117.588V76.8286H107.579V86.8378H100.906V76.8286H90.8965V70.1557H100.906ZM110.915 90.1742V80.165H120.924V70.1557H144.279L150.385 76.8286H160.961C164.631 76.8286 167.634 79.8313 167.634 83.5014V123.538C167.634 127.208 164.631 130.211 160.961 130.211H107.579C103.909 130.211 100.906 127.208 100.906 123.538V90.1742H110.915ZM134.27 120.202C143.478 120.202 150.952 112.728 150.952 103.52C150.952 94.3114 143.478 86.8378 134.27 86.8378C125.061 86.8378 117.588 94.3114 117.588 103.52C117.588 112.728 125.061 120.202 134.27 120.202ZM123.593 103.52C123.593 109.425 128.364 114.196 134.27 114.196C140.175 114.196 144.946 109.425 144.946 103.52C144.946 97.6144 140.175 92.8434 134.27 92.8434C128.364 92.8434 123.593 97.6144 123.593 103.52Z" fill="#5F5E5E"/>
</g>
<defs>
<clipPath id="clip0">
<rect width="80.074" height="80.074" fill="white" transform="translate(90.8965 56.8105)"/>
</clipPath>
</defs>
</svg>
