<svg width="281" height="37" viewBox="0 0 281 37" fill="none" xmlns="http://www.w3.org/2000/svg">
<path opacity="0.8" d="M17.9297 9.24414V4.81445H7.99805V12.6719H16.5586V15.9766H7.99805V24.6953H11.373V28H0.650391V24.6953H3.99023V4.81445H0.650391V1.50977H21.1992V9.24414H17.9297ZM42.0623 18.7891C42.0623 20.582 41.6346 22.2227 40.7791 23.7109C39.9237 25.1992 38.7577 26.377 37.2811 27.2441C35.8045 28.1113 34.1698 28.5449 32.3768 28.5449C30.5252 28.5449 28.8553 28.1113 27.367 27.2441C25.8787 26.377 24.7186 25.1992 23.8866 23.7109C23.0662 22.2227 22.6561 20.582 22.6561 18.7891C22.6561 16.9141 23.0662 15.2383 23.8866 13.7617C24.7186 12.2852 25.8729 11.1309 27.3495 10.2988C28.826 9.45508 30.5018 9.0332 32.3768 9.0332C34.1932 9.0332 35.8397 9.47852 37.3162 10.3691C38.7928 11.248 39.953 12.4316 40.7967 13.9199C41.6405 15.4082 42.0623 17.0312 42.0623 18.7891ZM32.3768 25.0117C33.4549 25.0117 34.4452 24.7305 35.3475 24.168C36.2498 23.6055 36.953 22.8496 37.4569 21.9004C37.9608 20.9512 38.2127 19.9141 38.2127 18.7891C38.2127 17.6875 37.9608 16.6621 37.4569 15.7129C36.953 14.7637 36.2498 14.002 35.3475 13.4277C34.4452 12.8418 33.4432 12.5488 32.3416 12.5488C31.2635 12.5488 30.2733 12.8359 29.3709 13.4102C28.4686 13.9727 27.7596 14.7344 27.244 15.6953C26.7284 16.6562 26.4705 17.6875 26.4705 18.7891C26.4705 19.8906 26.7284 20.9219 27.244 21.8828C27.7596 22.8438 28.4745 23.6055 29.3885 24.168C30.3026 24.7305 31.2987 25.0117 32.3768 25.0117ZM66.3708 18.7891C66.3708 20.582 65.943 22.2227 65.0876 23.7109C64.2321 25.1992 63.0661 26.377 61.5895 27.2441C60.113 28.1113 58.4782 28.5449 56.6852 28.5449C54.8337 28.5449 53.1637 28.1113 51.6755 27.2441C50.1872 26.377 49.027 25.1992 48.195 23.7109C47.3747 22.2227 46.9645 20.582 46.9645 18.7891C46.9645 16.9141 47.3747 15.2383 48.195 13.7617C49.027 12.2852 50.1813 11.1309 51.6579 10.2988C53.1345 9.45508 54.8102 9.0332 56.6852 9.0332C58.5016 9.0332 60.1481 9.47852 61.6247 10.3691C63.1012 11.248 64.2614 12.4316 65.1052 13.9199C65.9489 15.4082 66.3708 17.0312 66.3708 18.7891ZM56.6852 25.0117C57.7634 25.0117 58.7536 24.7305 59.6559 24.168C60.5583 23.6055 61.2614 22.8496 61.7653 21.9004C62.2692 20.9512 62.5212 19.9141 62.5212 18.7891C62.5212 17.6875 62.2692 16.6621 61.7653 15.7129C61.2614 14.7637 60.5583 14.002 59.6559 13.4277C58.7536 12.8418 57.7516 12.5488 56.6501 12.5488C55.572 12.5488 54.5817 12.8359 53.6794 13.4102C52.777 13.9727 52.068 14.7344 51.5524 15.6953C51.0368 16.6562 50.779 17.6875 50.779 18.7891C50.779 19.8906 51.0368 20.9219 51.5524 21.8828C52.068 22.8438 52.7829 23.6055 53.697 24.168C54.611 24.7305 55.6071 25.0117 56.6852 25.0117ZM93.8784 24.7656V28H86.9351V25.293C85.0835 27.3086 82.8745 28.3164 80.3081 28.3164C78.5269 28.3164 76.9507 27.9004 75.5796 27.0684C74.2202 26.2246 73.1597 25.082 72.398 23.6406C71.648 22.1992 71.273 20.6055 71.273 18.8594C71.273 17.0781 71.6714 15.4375 72.4683 13.9375C73.2769 12.4375 74.3902 11.248 75.8081 10.3691C77.2261 9.47852 78.7613 9.0332 80.4136 9.0332C81.6089 9.0332 82.7398 9.27344 83.8062 9.75391C84.8843 10.2344 85.9273 10.9902 86.9351 12.0215V4.70898H83.3667V1.50977H90.5386V24.7656H93.8784ZM80.9937 25.082C82.1187 25.082 83.1323 24.7832 84.0347 24.1855C84.937 23.5879 85.646 22.791 86.1616 21.7949C86.6773 20.7988 86.9351 19.7324 86.9351 18.5957C86.9351 17.4473 86.6773 16.3984 86.1616 15.4492C85.646 14.5 84.9312 13.75 84.0171 13.1992C83.1031 12.6484 82.0718 12.373 80.9234 12.373C79.8101 12.373 78.814 12.6719 77.9351 13.2695C77.0679 13.8555 76.3823 14.6406 75.8784 15.625C75.3745 16.5977 75.1226 17.6406 75.1226 18.7539C75.1226 19.9492 75.3804 21.0273 75.896 21.9883C76.4116 22.9492 77.1148 23.7051 78.0054 24.2559C78.896 24.8066 79.8921 25.082 80.9937 25.082ZM127.8 11.1953V4.81445H122.333V24.6953H125.779V28H114.95V24.6953H118.325V4.81445H112.894V11.1953H109.624V1.50977H131.07V11.1953H127.8ZM142.493 20.582V24.7656H146.519V28H135.181V24.7656H138.89V12.7773H135.181V9.52539H141.773V13.709C142.511 12.0566 143.425 10.9082 144.515 10.2637C145.616 9.60742 147.187 9.2793 149.226 9.2793H150.052V12.9531H149.261C147.292 12.9531 145.827 13.2109 144.866 13.7266C143.905 14.2422 143.267 15.0215 142.95 16.0645C142.646 17.1074 142.493 18.6133 142.493 20.582ZM162.513 25.1523C164.141 25.1523 165.905 24.3613 167.804 22.7793V12.7773H164.534V9.52539H171.442V24.7656H174.606V28H167.804V25.873C165.671 27.502 163.643 28.3164 161.722 28.3164C159.987 28.3164 158.704 27.8008 157.872 26.7695C157.052 25.7383 156.641 24.0273 156.641 21.6367V12.7773H154.057V9.52539H160.28V22.3926C160.28 23.3418 160.45 24.0391 160.79 24.4844C161.141 24.9297 161.716 25.1523 162.513 25.1523ZM193.184 10.8613V9.52539H196.419V16.5215H193.184C193.044 15.1738 192.505 14.1484 191.567 13.4453C190.63 12.7305 189.546 12.373 188.315 12.373C187.26 12.373 186.311 12.6543 185.467 13.2168C184.635 13.7793 183.991 14.541 183.534 15.502C183.077 16.4629 182.848 17.5117 182.848 18.6484C182.848 20.582 183.364 22.1641 184.395 23.3945C185.426 24.6133 186.786 25.2227 188.473 25.2227C191.087 25.2227 192.932 24.0098 194.01 21.584L197.034 23.0254C195.335 26.7051 192.428 28.5449 188.315 28.5449C186.475 28.5449 184.841 28.1113 183.411 27.2441C181.981 26.377 180.874 25.1875 180.089 23.6758C179.315 22.1641 178.928 20.4883 178.928 18.6484C178.928 16.8438 179.321 15.2031 180.106 13.7266C180.903 12.25 181.993 11.1016 183.376 10.2812C184.759 9.44922 186.3 9.0332 187.999 9.0332C190.014 9.0332 191.743 9.64258 193.184 10.8613ZM214.399 12.5488H211.481V9.52539H221.711V12.5488H218.864L211.956 18.2793L218.477 24.7656H221.711V28H216.913L207.667 18.6836V24.7656H210.795V28H200.723V24.7656H204.028V4.70898H200.723V1.50977H207.667V18.209L214.399 12.5488ZM227.791 28V23.3242H232.485V28H227.791ZM245.631 3.30273C245.631 3.90039 245.414 4.41602 244.981 4.84961C244.547 5.2832 244.031 5.5 243.434 5.5C242.836 5.5 242.326 5.2832 241.905 4.84961C241.483 4.41602 241.272 3.90039 241.272 3.30273C241.272 2.70508 241.483 2.18945 241.905 1.75586C242.326 1.32227 242.836 1.10547 243.434 1.10547C244.055 1.10547 244.576 1.31641 244.998 1.73828C245.42 2.16016 245.631 2.68164 245.631 3.30273ZM248.233 24.7656V28H238.899V24.7656H241.781V12.7773H238.899V9.52539H245.42V24.7656H248.233ZM263.77 10.3164V9.52539H266.934V15.6602H263.77V14.5352C262.715 13.0234 261.274 12.2676 259.445 12.2676C258.484 12.2676 257.699 12.4785 257.09 12.9004C256.481 13.3223 256.176 13.8672 256.176 14.5352C256.176 15.1328 256.404 15.6016 256.861 15.9414C257.33 16.2812 258.373 16.5801 259.99 16.8379L262.434 17.3125C266.078 17.9805 267.9 19.7676 267.9 22.6738C267.9 24.373 267.238 25.7383 265.914 26.7695C264.602 27.8008 262.856 28.3164 260.676 28.3164C259.809 28.3164 258.953 28.1934 258.109 27.9473C257.277 27.6895 256.58 27.373 256.018 26.998V28H252.783V21.6719H256.018V22.3047C256.193 23.1953 256.686 23.9102 257.494 24.4492C258.315 24.9883 259.264 25.2578 260.342 25.2578C261.525 25.2578 262.457 25.0527 263.137 24.6426C263.816 24.2207 264.156 23.5996 264.156 22.7793C264.156 22.1816 263.887 21.7363 263.348 21.4434C262.809 21.1387 261.725 20.8281 260.096 20.5117L258.215 20.1074C256.352 19.7324 254.986 19.0879 254.119 18.1738C253.252 17.2598 252.818 16.0938 252.818 14.6758C252.818 13.5273 253.135 12.5488 253.768 11.7402C254.412 10.9199 255.232 10.3047 256.229 9.89453C257.225 9.48438 258.25 9.2793 259.305 9.2793C261.074 9.2793 262.563 9.625 263.77 10.3164Z" fill="black"/>
</svg>
