<svg width="105" height="12" viewBox="0 0 105 12" fill="none" xmlns="http://www.w3.org/2000/svg">
<path opacity="0.8" d="M6.97266 3.70605V1.9834H3.11035V5.03906H6.43945V6.32422H3.11035V9.71484H4.42285V11H0.25293V9.71484H1.55176V1.9834H0.25293V0.698242H8.24414V3.70605H6.97266ZM16.3576 7.41797C16.3576 8.11523 16.1912 8.75326 15.8586 9.33203C15.5259 9.91081 15.0724 10.3688 14.4982 10.7061C13.924 11.0433 13.2882 11.2119 12.591 11.2119C11.8709 11.2119 11.2215 11.0433 10.6427 10.7061C10.064 10.3688 9.61279 9.91081 9.28922 9.33203C8.97021 8.75326 8.8107 8.11523 8.8107 7.41797C8.8107 6.6888 8.97021 6.03711 9.28922 5.46289C9.61279 4.88867 10.0617 4.43978 10.6359 4.11621C11.2101 3.78809 11.8618 3.62402 12.591 3.62402C13.2974 3.62402 13.9377 3.7972 14.5119 4.14355C15.0861 4.48535 15.5373 4.94564 15.8654 5.52441C16.1935 6.10319 16.3576 6.73438 16.3576 7.41797ZM12.591 9.83789C13.0102 9.83789 13.3953 9.72852 13.7463 9.50977C14.0972 9.29102 14.3706 8.99707 14.5666 8.62793C14.7625 8.25879 14.8605 7.85547 14.8605 7.41797C14.8605 6.98958 14.7625 6.59082 14.5666 6.22168C14.3706 5.85254 14.0972 5.55632 13.7463 5.33301C13.3953 5.10514 13.0057 4.99121 12.5773 4.99121C12.158 4.99121 11.7729 5.10286 11.422 5.32617C11.0711 5.54492 10.7954 5.84115 10.5949 6.21484C10.3944 6.58854 10.2941 6.98958 10.2941 7.41797C10.2941 7.84635 10.3944 8.2474 10.5949 8.62109C10.7954 8.99479 11.0734 9.29102 11.4289 9.50977C11.7843 9.72852 12.1717 9.83789 12.591 9.83789ZM25.8109 7.41797C25.8109 8.11523 25.6445 8.75326 25.3118 9.33203C24.9792 9.91081 24.5257 10.3688 23.9515 10.7061C23.3773 11.0433 22.7415 11.2119 22.0443 11.2119C21.3242 11.2119 20.6748 11.0433 20.096 10.7061C19.5172 10.3688 19.0661 9.91081 18.7425 9.33203C18.4235 8.75326 18.264 8.11523 18.264 7.41797C18.264 6.6888 18.4235 6.03711 18.7425 5.46289C19.0661 4.88867 19.515 4.43978 20.0892 4.11621C20.6634 3.78809 21.3151 3.62402 22.0443 3.62402C22.7506 3.62402 23.3909 3.7972 23.9652 4.14355C24.5394 4.48535 24.9905 4.94564 25.3187 5.52441C25.6468 6.10319 25.8109 6.73438 25.8109 7.41797ZM22.0443 9.83789C22.4635 9.83789 22.8486 9.72852 23.1995 9.50977C23.5504 9.29102 23.8239 8.99707 24.0198 8.62793C24.2158 8.25879 24.3138 7.85547 24.3138 7.41797C24.3138 6.98958 24.2158 6.59082 24.0198 6.22168C23.8239 5.85254 23.5504 5.55632 23.1995 5.33301C22.8486 5.10514 22.459 4.99121 22.0306 4.99121C21.6113 4.99121 21.2262 5.10286 20.8753 5.32617C20.5244 5.54492 20.2487 5.84115 20.0482 6.21484C19.8476 6.58854 19.7474 6.98958 19.7474 7.41797C19.7474 7.84635 19.8476 8.2474 20.0482 8.62109C20.2487 8.99479 20.5267 9.29102 20.8821 9.50977C21.2376 9.72852 21.625 9.83789 22.0443 9.83789ZM36.5083 9.74219V11H33.8081V9.94727C33.088 10.7311 32.229 11.123 31.2309 11.123C30.5382 11.123 29.9253 10.9613 29.3921 10.6377C28.8634 10.3096 28.451 9.86523 28.1548 9.30469C27.8631 8.74414 27.7173 8.12435 27.7173 7.44531C27.7173 6.7526 27.8722 6.11458 28.1821 5.53125C28.4966 4.94792 28.9295 4.48535 29.4809 4.14355C30.0324 3.7972 30.6294 3.62402 31.272 3.62402C31.7368 3.62402 32.1766 3.71745 32.5913 3.9043C33.0106 4.09115 33.4162 4.38509 33.8081 4.78613V1.94238H32.4204V0.698242H35.2095V9.74219H36.5083ZM31.4975 9.86523C31.935 9.86523 32.3292 9.74902 32.6802 9.5166C33.0311 9.28418 33.3068 8.97428 33.5073 8.58691C33.7078 8.19954 33.8081 7.78483 33.8081 7.34277C33.8081 6.89616 33.7078 6.48828 33.5073 6.11914C33.3068 5.75 33.0288 5.45833 32.6733 5.24414C32.3179 5.02995 31.9168 4.92285 31.4702 4.92285C31.0373 4.92285 30.6499 5.03906 30.3081 5.27148C29.9708 5.49935 29.7042 5.80469 29.5083 6.1875C29.3123 6.56576 29.2143 6.97135 29.2143 7.4043C29.2143 7.86914 29.3146 8.28841 29.5151 8.66211C29.7156 9.03581 29.9891 9.32975 30.3354 9.54395C30.6818 9.75814 31.0692 9.86523 31.4975 9.86523ZM49.7 4.46484V1.9834H47.574V9.71484H48.9139V11H44.7029V9.71484H46.0154V1.9834H43.9031V4.46484H42.6316V0.698242H50.9715V4.46484H49.7ZM55.414 8.11523V9.74219H56.9795V11H52.5703V9.74219H54.0127V5.08008H52.5703V3.81543H55.1338V5.44238C55.4209 4.7998 55.7763 4.35319 56.2002 4.10254C56.6285 3.84733 57.2392 3.71973 58.0322 3.71973H58.3535V5.14844H58.0459C57.2802 5.14844 56.7106 5.2487 56.3369 5.44922C55.9632 5.64974 55.7148 5.9528 55.5918 6.3584C55.4733 6.764 55.414 7.34961 55.414 8.11523ZM63.1993 9.89258C63.8328 9.89258 64.5187 9.58496 65.257 8.96973V5.08008H63.9855V3.81543H66.672V9.74219H67.9025V11H65.257V10.1729C64.4275 10.8063 63.6391 11.123 62.8917 11.123C62.2172 11.123 61.7182 10.9225 61.3946 10.5215C61.0756 10.1204 60.9161 9.45508 60.9161 8.52539V5.08008H59.9113V3.81543H62.3312V8.81934C62.3312 9.18848 62.3973 9.45964 62.5294 9.63281C62.6661 9.80599 62.8894 9.89258 63.1993 9.89258ZM75.1272 4.33496V3.81543H76.385V6.53613H75.1272C75.0725 6.01204 74.8629 5.61328 74.4983 5.33984C74.1337 5.06185 73.7122 4.92285 73.2337 4.92285C72.8235 4.92285 72.4544 5.03223 72.1263 5.25098C71.8027 5.46973 71.552 5.76595 71.3743 6.13965C71.1966 6.51335 71.1077 6.92122 71.1077 7.36328C71.1077 8.11523 71.3082 8.73047 71.7093 9.20898C72.1103 9.68294 72.6389 9.91992 73.2952 9.91992C74.3115 9.91992 75.0292 9.44824 75.4485 8.50488L76.6243 9.06543C75.9635 10.4964 74.8333 11.2119 73.2337 11.2119C72.5182 11.2119 71.8824 11.0433 71.3264 10.7061C70.7705 10.3688 70.3398 9.90625 70.0345 9.31836C69.7337 8.73047 69.5833 8.07878 69.5833 7.36328C69.5833 6.66146 69.736 6.02344 70.0413 5.44922C70.3512 4.875 70.775 4.42839 71.3128 4.10938C71.8505 3.78581 72.4498 3.62402 73.1106 3.62402C73.8945 3.62402 74.5667 3.861 75.1272 4.33496ZM83.3774 4.99121H82.2426V3.81543H86.2211V4.99121H85.1137L82.4272 7.21973L84.9633 9.74219H86.2211V11H84.3549L80.7592 7.37695V9.74219H81.976V11H78.059V9.74219H79.3442V1.94238H78.059V0.698242H80.7592V7.19238L83.3774 4.99121ZM88.5855 11V9.18164H90.4107V11H88.5855ZM95.5232 1.39551C95.5232 1.62793 95.4389 1.82845 95.2703 1.99707C95.1017 2.16569 94.9011 2.25 94.6687 2.25C94.4363 2.25 94.238 2.16569 94.074 1.99707C93.9099 1.82845 93.8279 1.62793 93.8279 1.39551C93.8279 1.16309 93.9099 0.962565 94.074 0.793945C94.238 0.625326 94.4363 0.541016 94.6687 0.541016C94.9102 0.541016 95.113 0.623047 95.2771 0.787109C95.4412 0.951172 95.5232 1.15397 95.5232 1.39551ZM96.5349 9.74219V11H92.905V9.74219H94.0261V5.08008H92.905V3.81543H95.4412V9.74219H96.5349ZM102.577 4.12305V3.81543H103.808V6.20117H102.577V5.76367C102.167 5.17578 101.606 4.88184 100.895 4.88184C100.522 4.88184 100.216 4.96387 99.9794 5.12793C99.7424 5.29199 99.6239 5.50391 99.6239 5.76367C99.6239 5.99609 99.7128 6.17839 99.8905 6.31055C100.073 6.44271 100.478 6.55892 101.107 6.65918L102.058 6.84375C103.475 7.10352 104.184 7.7985 104.184 8.92871C104.184 9.58952 103.926 10.1204 103.411 10.5215C102.901 10.9225 102.222 11.123 101.374 11.123C101.037 11.123 100.704 11.0752 100.376 10.9795C100.052 10.8792 99.7812 10.7562 99.5624 10.6104V11H98.3046V8.53906H99.5624V8.78516C99.6308 9.13151 99.8222 9.40951 100.137 9.61914C100.456 9.82878 100.825 9.93359 101.244 9.93359C101.704 9.93359 102.067 9.85384 102.331 9.69434C102.595 9.53027 102.727 9.28874 102.727 8.96973C102.727 8.7373 102.623 8.56413 102.413 8.4502C102.203 8.33171 101.782 8.21094 101.148 8.08789L100.417 7.93066C99.6923 7.78483 99.1614 7.53418 98.8241 7.17871C98.4869 6.82324 98.3183 6.36979 98.3183 5.81836C98.3183 5.37174 98.4413 4.99121 98.6874 4.67676C98.9381 4.35775 99.2571 4.11849 99.6445 3.95898C100.032 3.79948 100.431 3.71973 100.841 3.71973C101.529 3.71973 102.108 3.85417 102.577 4.12305Z" fill="white"/>
</svg>
