<svg width="179" height="19" viewBox="0 0 179 19" fill="none" xmlns="http://www.w3.org/2000/svg">
<path opacity="0.8" d="M11.8606 5.49609V2.54297H5.2395V7.78125H10.9465V9.98438H5.2395V15.7969H7.4895V18H0.341064V15.7969H2.56763V2.54297H0.341064V0.339844H14.0403V5.49609H11.8606ZM27.949 11.8594C27.949 13.0547 27.6639 14.1484 27.0936 15.1406C26.5233 16.1328 25.7459 16.918 24.7615 17.4961C23.7772 18.0742 22.6873 18.3633 21.492 18.3633C20.2576 18.3633 19.1443 18.0742 18.1522 17.4961C17.16 16.918 16.3865 16.1328 15.8318 15.1406C15.285 14.1484 15.0115 13.0547 15.0115 11.8594C15.0115 10.6094 15.285 9.49219 15.8318 8.50781C16.3865 7.52344 17.1561 6.75391 18.1404 6.19922C19.1248 5.63672 20.242 5.35547 21.492 5.35547C22.7029 5.35547 23.8006 5.65234 24.785 6.24609C25.7693 6.83203 26.5428 7.62109 27.1053 8.61328C27.6678 9.60547 27.949 10.6875 27.949 11.8594ZM21.492 16.0078C22.2108 16.0078 22.8709 15.8203 23.4725 15.4453C24.074 15.0703 24.5428 14.5664 24.8787 13.9336C25.2147 13.3008 25.3826 12.6094 25.3826 11.8594C25.3826 11.125 25.2147 10.4414 24.8787 9.80859C24.5428 9.17578 24.074 8.66797 23.4725 8.28516C22.8709 7.89453 22.2029 7.69922 21.4686 7.69922C20.7498 7.69922 20.0897 7.89062 19.4881 8.27344C18.8865 8.64844 18.4139 9.15625 18.0701 9.79688C17.7264 10.4375 17.5545 11.125 17.5545 11.8594C17.5545 12.5938 17.7264 13.2812 18.0701 13.9219C18.4139 14.5625 18.8904 15.0703 19.4998 15.4453C20.1092 15.8203 20.7733 16.0078 21.492 16.0078ZM44.1547 11.8594C44.1547 13.0547 43.8695 14.1484 43.2992 15.1406C42.7289 16.1328 41.9515 16.918 40.9672 17.4961C39.9828 18.0742 38.8929 18.3633 37.6976 18.3633C36.4633 18.3633 35.35 18.0742 34.3578 17.4961C33.3656 16.918 32.5922 16.1328 32.0375 15.1406C31.4906 14.1484 31.2172 13.0547 31.2172 11.8594C31.2172 10.6094 31.4906 9.49219 32.0375 8.50781C32.5922 7.52344 33.3617 6.75391 34.3461 6.19922C35.3304 5.63672 36.4476 5.35547 37.6976 5.35547C38.9086 5.35547 40.0062 5.65234 40.9906 6.24609C41.975 6.83203 42.7484 7.62109 43.3109 8.61328C43.8734 9.60547 44.1547 10.6875 44.1547 11.8594ZM37.6976 16.0078C38.4164 16.0078 39.0765 15.8203 39.6781 15.4453C40.2797 15.0703 40.7484 14.5664 41.0843 13.9336C41.4203 13.3008 41.5883 12.6094 41.5883 11.8594C41.5883 11.125 41.4203 10.4414 41.0843 9.80859C40.7484 9.17578 40.2797 8.66797 39.6781 8.28516C39.0765 7.89453 38.4086 7.69922 37.6742 7.69922C36.9554 7.69922 36.2953 7.89062 35.6937 8.27344C35.0922 8.64844 34.6195 9.15625 34.2758 9.79688C33.932 10.4375 33.7601 11.125 33.7601 11.8594C33.7601 12.5938 33.932 13.2812 34.2758 13.9219C34.6195 14.5625 35.0961 15.0703 35.7054 15.4453C36.3148 15.8203 36.9789 16.0078 37.6976 16.0078ZM62.4931 15.8438V18H57.8642V16.1953C56.6298 17.5391 55.1572 18.2109 53.4462 18.2109C52.2587 18.2109 51.2079 17.9336 50.2939 17.3789C49.3876 16.8164 48.6806 16.0547 48.1728 15.0938C47.6728 14.1328 47.4228 13.0703 47.4228 11.9062C47.4228 10.7188 47.6884 9.625 48.2197 8.625C48.7587 7.625 49.5009 6.83203 50.4462 6.24609C51.3915 5.65234 52.415 5.35547 53.5165 5.35547C54.3134 5.35547 55.0673 5.51563 55.7783 5.83594C56.497 6.15625 57.1923 6.66016 57.8642 7.34766V2.47266H55.4853V0.339844H60.2665V15.8438H62.4931ZM53.9033 16.0547C54.6533 16.0547 55.329 15.8555 55.9306 15.457C56.5322 15.0586 57.0048 14.5273 57.3486 13.8633C57.6923 13.1992 57.8642 12.4883 57.8642 11.7305C57.8642 10.9648 57.6923 10.2656 57.3486 9.63281C57.0048 9 56.5283 8.5 55.9189 8.13281C55.3095 7.76562 54.622 7.58203 53.8564 7.58203C53.1142 7.58203 52.4501 7.78125 51.8642 8.17969C51.2861 8.57031 50.829 9.09375 50.4931 9.75C50.1572 10.3984 49.9892 11.0938 49.9892 11.8359C49.9892 12.6328 50.1611 13.3516 50.5048 13.9922C50.8486 14.6328 51.3173 15.1367 51.9111 15.5039C52.5048 15.8711 53.1689 16.0547 53.9033 16.0547ZM85.1075 6.79688V2.54297H81.4629V15.7969H83.7598V18H76.5411V15.7969H78.7911V2.54297H75.17V6.79688H72.9903V0.339844H87.2872V6.79688H85.1075ZM94.9029 13.0547V15.8438H97.5865V18H90.0279V15.8438H92.5006V7.85156H90.0279V5.68359H94.4225V8.47266C94.9147 7.37109 95.524 6.60547 96.2506 6.17578C96.985 5.73828 98.0318 5.51953 99.3912 5.51953H99.942V7.96875H99.4147C98.1022 7.96875 97.1256 8.14062 96.485 8.48438C95.8443 8.82812 95.4186 9.34766 95.2076 10.043C95.0045 10.7383 94.9029 11.7422 94.9029 13.0547ZM108.249 16.1016C109.335 16.1016 110.511 15.5742 111.777 14.5195V7.85156H109.597V5.68359H114.202V15.8438H116.312V18H111.777V16.582C110.355 17.668 109.003 18.2109 107.722 18.2109C106.566 18.2109 105.71 17.8672 105.155 17.1797C104.609 16.4922 104.335 15.3516 104.335 13.7578V7.85156H102.612V5.68359H106.761V14.2617C106.761 14.8945 106.874 15.3594 107.101 15.6562C107.335 15.9531 107.718 16.1016 108.249 16.1016ZM128.697 6.57422V5.68359H130.853V10.3477H128.697C128.603 9.44922 128.244 8.76562 127.619 8.29688C126.994 7.82031 126.271 7.58203 125.451 7.58203C124.748 7.58203 124.115 7.76953 123.552 8.14453C122.998 8.51953 122.568 9.02734 122.263 9.66797C121.959 10.3086 121.806 11.0078 121.806 11.7656C121.806 13.0547 122.15 14.1094 122.838 14.9297C123.525 15.7422 124.431 16.1484 125.556 16.1484C127.299 16.1484 128.529 15.3398 129.248 13.7227L131.263 14.6836C130.131 17.1367 128.193 18.3633 125.451 18.3633C124.224 18.3633 123.135 18.0742 122.181 17.4961C121.228 16.918 120.49 16.125 119.967 15.1172C119.451 14.1094 119.193 12.9922 119.193 11.7656C119.193 10.5625 119.455 9.46875 119.978 8.48438C120.51 7.5 121.236 6.73438 122.158 6.1875C123.08 5.63281 124.107 5.35547 125.24 5.35547C126.584 5.35547 127.736 5.76172 128.697 6.57422ZM142.84 7.69922H140.895V5.68359H147.715V7.69922H145.817L141.211 11.5195L145.559 15.8438H147.715V18H144.516L138.352 11.7891V15.8438H140.438V18H133.723V15.8438H135.926V2.47266H133.723V0.339844H138.352V11.4727L142.84 7.69922ZM151.768 18V14.8828H154.897V18H151.768ZM163.662 1.53516C163.662 1.93359 163.517 2.27734 163.228 2.56641C162.939 2.85547 162.595 3 162.197 3C161.798 3 161.458 2.85547 161.177 2.56641C160.896 2.27734 160.755 1.93359 160.755 1.53516C160.755 1.13672 160.896 0.792969 161.177 0.503906C161.458 0.214844 161.798 0.0703125 162.197 0.0703125C162.611 0.0703125 162.958 0.210938 163.24 0.492188C163.521 0.773438 163.662 1.12109 163.662 1.53516ZM165.396 15.8438V18H159.173V15.8438H161.095V7.85156H159.173V5.68359H163.521V15.8438H165.396ZM175.754 6.21094V5.68359H177.863V9.77344H175.754V9.02344C175.051 8.01562 174.09 7.51172 172.871 7.51172C172.23 7.51172 171.707 7.65234 171.301 7.93359C170.895 8.21484 170.691 8.57812 170.691 9.02344C170.691 9.42188 170.844 9.73438 171.148 9.96094C171.461 10.1875 172.156 10.3867 173.234 10.5586L174.863 10.875C177.293 11.3203 178.508 12.5117 178.508 14.4492C178.508 15.582 178.066 16.4922 177.184 17.1797C176.309 17.8672 175.145 18.2109 173.691 18.2109C173.113 18.2109 172.543 18.1289 171.98 17.9648C171.426 17.793 170.961 17.582 170.586 17.332V18H168.43V13.7812H170.586V14.2031C170.703 14.7969 171.031 15.2734 171.57 15.6328C172.117 15.9922 172.75 16.1719 173.469 16.1719C174.258 16.1719 174.879 16.0352 175.332 15.7617C175.785 15.4805 176.012 15.0664 176.012 14.5195C176.012 14.1211 175.832 13.8242 175.473 13.6289C175.113 13.4258 174.391 13.2188 173.305 13.0078L172.051 12.7383C170.809 12.4883 169.898 12.0586 169.32 11.4492C168.742 10.8398 168.453 10.0625 168.453 9.11719C168.453 8.35156 168.664 7.69922 169.086 7.16016C169.516 6.61328 170.062 6.20312 170.727 5.92969C171.391 5.65625 172.074 5.51953 172.777 5.51953C173.957 5.51953 174.949 5.75 175.754 6.21094Z" fill="white"/>
</svg>
