<svg width="42" height="39" viewBox="0 0 42 39" fill="none" xmlns="http://www.w3.org/2000/svg">
<line x1="1.02668" y1="23.8714" x2="6.17787" y2="23.827" stroke="#C83123" stroke-width="1.06098"/>
<line x1="1.91427" y1="6.43261" x2="2.0085" y2="23.4385" stroke="#C83123" stroke-width="1.06098"/>
<line x1="1.38473" y1="6.15019" x2="34.5697" y2="5.90336" stroke="#C83123" stroke-width="1.06098"/>
<line x1="34.5998" y1="6.05914" x2="34.592" y2="8.13384" stroke="#C83123" stroke-width="1.06098"/>
<line x1="34.5604" y1="7.95087" x2="37.0149" y2="14.7354" stroke="#C83123" stroke-width="1.06098"/>
<line x1="36.6929" y1="14.416" x2="40.1765" y2="15.6514" stroke="#C83123" stroke-width="1.06098"/>
<line x1="40.0822" y1="15.7192" x2="40.0822" y2="23.4188" stroke="#C83123" stroke-width="1.06098"/>
<mask id="path-8-inside-1" fill="white">
<path d="M12.4927 24.1009C12.4927 25.7037 11.0803 27.0031 9.33814 27.0031C7.59593 27.0031 6.18359 25.7037 6.18359 24.1009C6.18359 22.4981 7.59593 21.1987 9.33814 21.1987C11.0803 21.1987 12.4927 22.4981 12.4927 24.1009ZM8.98585 24.1009C8.98585 24.2799 9.14358 24.425 9.33814 24.425C9.5327 24.425 9.69043 24.2799 9.69043 24.1009C9.69043 23.9219 9.5327 23.7768 9.33814 23.7768C9.14358 23.7768 8.98585 23.9219 8.98585 24.1009Z"/>
</mask>
<path d="M12.4927 24.1009C12.4927 25.7037 11.0803 27.0031 9.33814 27.0031C7.59593 27.0031 6.18359 25.7037 6.18359 24.1009C6.18359 22.4981 7.59593 21.1987 9.33814 21.1987C11.0803 21.1987 12.4927 22.4981 12.4927 24.1009ZM8.98585 24.1009C8.98585 24.2799 9.14358 24.425 9.33814 24.425C9.5327 24.425 9.69043 24.2799 9.69043 24.1009C9.69043 23.9219 9.5327 23.7768 9.33814 23.7768C9.14358 23.7768 8.98585 23.9219 8.98585 24.1009Z" stroke="#C83123" stroke-width="2.12196" mask="url(#path-8-inside-1)"/>
<mask id="path-9-inside-2" fill="white">
<path d="M34.8257 24.1009C34.8257 25.7037 33.4134 27.0031 31.6711 27.0031C29.9289 27.0031 28.5166 25.7037 28.5166 24.1009C28.5166 22.4981 29.9289 21.1987 31.6711 21.1987C33.4134 21.1987 34.8257 22.4981 34.8257 24.1009ZM31.3189 24.1009C31.3189 24.2799 31.4766 24.425 31.6711 24.425C31.8657 24.425 32.0234 24.2799 32.0234 24.1009C32.0234 23.9219 31.8657 23.7768 31.6711 23.7768C31.4766 23.7768 31.3189 23.9219 31.3189 24.1009Z"/>
</mask>
<path d="M34.8257 24.1009C34.8257 25.7037 33.4134 27.0031 31.6711 27.0031C29.9289 27.0031 28.5166 25.7037 28.5166 24.1009C28.5166 22.4981 29.9289 21.1987 31.6711 21.1987C33.4134 21.1987 34.8257 22.4981 34.8257 24.1009ZM31.3189 24.1009C31.3189 24.2799 31.4766 24.425 31.6711 24.425C31.8657 24.425 32.0234 24.2799 32.0234 24.1009C32.0234 23.9219 31.8657 23.7768 31.6711 23.7768C31.4766 23.7768 31.3189 23.9219 31.3189 24.1009Z" stroke="#C83123" stroke-width="2.12196" mask="url(#path-9-inside-2)"/>
<line x1="1.47852" y1="23.9275" x2="1.03217" y2="23.9275" stroke="#C83123" stroke-width="1.06098"/>
<line x1="1.56257" y1="23.4093" x2="1.54027" y2="24.3659" stroke="#C83123" stroke-width="1.06098"/>
<path d="M5.89279 14.1058V9.97824H19.9734V13.8048L5.89279 14.1058Z" stroke="#C83123" stroke-width="1.06098"/>
<mask id="path-13-inside-3" fill="white">
<rect x="30.29" y="9.42578" width="2.27013" height="5.19996" rx="0.223174"/>
</mask>
<rect x="30.29" y="9.42578" width="2.27013" height="5.19996" rx="0.223174" stroke="#C83123" stroke-width="2.12196" mask="url(#path-13-inside-3)"/>
<path d="M33.6309 9.33691L33.5542 14.6474" stroke="#C83123" stroke-width="1.06098"/>
<line x1="33.3711" y1="14.117" x2="35.3767" y2="14.117" stroke="#C83123" stroke-width="1.06098"/>
<path d="M35.3936 14.6362L33.627 9.39968" stroke="#C83123" stroke-width="1.06098"/>
<line x1="39.5518" y1="22.8885" x2="39.9981" y2="22.8885" stroke="#C83123" stroke-width="1.06098"/>
<line x1="40.5305" y1="23.3758" x2="40.5272" y2="24.3578" stroke="#C83123" stroke-width="1.06098"/>
<path d="M20.0908 38.1069L28.5171 24.3531" stroke="#C83123" stroke-width="1.06098"/>
<path d="M20.0371 38.1802L12.492 24.3534" stroke="#C83123" stroke-width="1.06098"/>
<path d="M34.5742 24.1006L40.0001 24.126" stroke="#C83123" stroke-width="1.06098"/>
<line x1="3.12869" y1="6.18262" x2="3.12869" y2="-0.000293732" stroke="#C83123" stroke-width="1.06098"/>
<line x1="3.71163" y1="0.499584" x2="0.178534" y2="1.7614" stroke="#C83123" stroke-width="1.06098"/>
<line x1="0.111153" y1="0.868981" x2="3.64424" y2="1.62607" stroke="#C83123" stroke-width="1.06098"/>
</svg>
