<svg width="88" height="58" viewBox="0 0 88 58" fill="none" xmlns="http://www.w3.org/2000/svg">
<line x1="2.2072" y1="51.4131" x2="13.2715" y2="51.3178" stroke="black" stroke-width="2"/>
<line x1="3.97264" y1="13.8167" x2="4.17503" y2="50.3439" stroke="black" stroke-width="2"/>
<line x1="2.97596" y1="13.3496" x2="74.2545" y2="12.8195" stroke="black" stroke-width="2"/>
<line x1="74.1777" y1="13.0131" x2="74.1608" y2="17.4694" stroke="black" stroke-width="2"/>
<line x1="74.1015" y1="17.1251" x2="79.3736" y2="31.6977" stroke="black" stroke-width="2"/>
<line x1="78.7678" y1="31.0956" x2="86.2502" y2="33.7491" stroke="black" stroke-width="2"/>
<line x1="85.9531" y1="33.7637" x2="85.9531" y2="50.3016" stroke="black" stroke-width="2"/>
<mask id="path-8-inside-1" fill="white">
<path d="M26.8317 51.7664C26.8317 55.2091 23.7981 58 20.056 58C16.3139 58 13.2803 55.2091 13.2803 51.7664C13.2803 48.3236 16.3139 45.5327 20.056 45.5327C23.7981 45.5327 26.8317 48.3236 26.8317 51.7664ZM19.2993 51.7664C19.2993 52.1508 19.6381 52.4625 20.056 52.4625C20.4739 52.4625 20.8127 52.1508 20.8127 51.7664C20.8127 51.3819 20.4739 51.0702 20.056 51.0702C19.6381 51.0702 19.2993 51.3819 19.2993 51.7664Z"/>
</mask>
<path d="M26.8317 51.7664C26.8317 55.2091 23.7981 58 20.056 58C16.3139 58 13.2803 55.2091 13.2803 51.7664C13.2803 48.3236 16.3139 45.5327 20.056 45.5327C23.7981 45.5327 26.8317 48.3236 26.8317 51.7664ZM19.2993 51.7664C19.2993 52.1508 19.6381 52.4625 20.056 52.4625C20.4739 52.4625 20.8127 52.1508 20.8127 51.7664C20.8127 51.3819 20.4739 51.0702 20.056 51.0702C19.6381 51.0702 19.2993 51.3819 19.2993 51.7664Z" stroke="black" stroke-width="4" mask="url(#path-8-inside-1)"/>
<mask id="path-9-inside-2" fill="white">
<path d="M74.8034 51.7664C74.8034 55.2091 71.7698 58 68.0277 58C64.2855 58 61.252 55.2091 61.252 51.7664C61.252 48.3236 64.2855 45.5327 68.0277 45.5327C71.7698 45.5327 74.8034 48.3236 74.8034 51.7664ZM67.271 51.7664C67.271 52.1508 67.6098 52.4625 68.0277 52.4625C68.4456 52.4625 68.7843 52.1508 68.7843 51.7664C68.7843 51.3819 68.4456 51.0702 68.0277 51.0702C67.6098 51.0702 67.271 51.3819 67.271 51.7664Z"/>
</mask>
<path d="M74.8034 51.7664C74.8034 55.2091 71.7698 58 68.0277 58C64.2855 58 61.252 55.2091 61.252 51.7664C61.252 48.3236 64.2855 45.5327 68.0277 45.5327C71.7698 45.5327 74.8034 48.3236 74.8034 51.7664ZM67.271 51.7664C67.271 52.1508 67.6098 52.4625 68.0277 52.4625C68.4456 52.4625 68.7843 52.1508 68.7843 51.7664C68.7843 51.3819 68.4456 51.0702 68.0277 51.0702C67.6098 51.0702 67.271 51.3819 67.271 51.7664Z" stroke="black" stroke-width="4" mask="url(#path-9-inside-2)"/>
<line x1="3.1748" y1="51.2539" x2="2.21515" y2="51.2539" stroke="black" stroke-width="2"/>
<line x1="3.21555" y1="50.2772" x2="3.16764" y2="52.3319" stroke="black" stroke-width="2"/>
<path d="M12.5176 30.4414V21.2939H43.0404V29.7891L12.5176 30.4414Z" stroke="black" stroke-width="2"/>
<mask id="path-13-inside-3" fill="white">
<rect x="65.0605" y="20.2461" width="4.87605" height="11.1691" rx="0.47936"/>
</mask>
<rect x="65.0605" y="20.2461" width="4.87605" height="11.1691" rx="0.47936" stroke="black" stroke-width="4" mask="url(#path-13-inside-3)"/>
<path d="M72.2363 20.0562L72.0716 31.4625" stroke="black" stroke-width="2"/>
<line x1="71.6787" y1="30.4624" x2="75.9867" y2="30.4624" stroke="black" stroke-width="2"/>
<path d="M76.0234 31.439L72.229 20.1913" stroke="black" stroke-width="2"/>
<line x1="84.9531" y1="49.3018" x2="85.9128" y2="49.3018" stroke="black" stroke-width="2"/>
<line x1="86.916" y1="50.2094" x2="86.9089" y2="52.3186" stroke="black" stroke-width="2"/>
<path d="M26.8066 51.8447L61.524 51.8447" stroke="black" stroke-width="2"/>
<path d="M74.2616 51.7662L85.9161 51.8208" stroke="black" stroke-width="2"/>
<line x1="6.85938" y1="13.2803" x2="6.85938" y2="-0.000100136" stroke="black" stroke-width="2"/>
<line x1="7.9252" y1="0.941742" x2="0.336419" y2="3.65202" stroke="black" stroke-width="2"/>
<line x1="0.209529" y1="2.00364" x2="7.79831" y2="3.62981" stroke="black" stroke-width="2"/>
</svg>
