<svg width="46" height="48" viewBox="0 0 46 48" fill="none" xmlns="http://www.w3.org/2000/svg">
<path d="M40.35 24.65V25.15H40.85H41.925C42.2401 25.15 42.5 25.4099 42.5 25.725V27.875C42.5 28.1901 42.2401 28.45 41.925 28.45H38.7H38.2V28.95C38.2 32.2348 35.5348 34.9 32.25 34.9C28.9652 34.9 26.3 32.2348 26.3 28.95V28.45H25.8H17.2H16.7V28.95C16.7 32.2348 14.0348 34.9 10.75 34.9C7.46521 34.9 4.8 32.2348 4.8 28.95V28.45H4.3H3.225C1.72067 28.45 0.5 27.2293 0.5 25.725V4.225C0.5 2.72067 1.72067 1.5 3.225 1.5H24.725C26.2293 1.5 27.45 2.72067 27.45 4.225V7.45V7.95H27.95H30.913C31.6322 7.95 32.3252 8.23899 32.8371 8.7509L39.5491 15.4629C40.061 15.9748 40.35 16.6678 40.35 17.387V24.65ZM37.625 18.7H38.125V18.2V17.387V17.1799L37.9786 17.0335L31.2665 10.3214L31.1201 10.175H30.913H27.95H27.45V10.675V18.2V18.7H27.95H37.625ZM7.025 28.95C7.025 31.0066 8.69339 32.675 10.75 32.675C12.8066 32.675 14.475 31.0066 14.475 28.95C14.475 26.8934 12.8066 25.225 10.75 25.225C8.69339 25.225 7.025 26.8934 7.025 28.95ZM28.525 28.95C28.525 31.0066 30.1934 32.675 32.25 32.675C34.3066 32.675 35.975 31.0066 35.975 28.95C35.975 26.8934 34.3066 25.225 32.25 25.225C30.1934 25.225 28.525 26.8934 28.525 28.95Z" fill="#8C8D9B" stroke="#373535"/>
<path d="M43.7484 23.65V23.7516H43.85H44.925C45.4602 23.7516 45.8984 24.1898 45.8984 24.725V26.875C45.8984 27.4102 45.4602 27.8484 44.925 27.8484H41.7H41.5984V27.95C41.5984 31.4548 38.7548 34.2984 35.25 34.2984C31.7452 34.2984 28.9016 31.4548 28.9016 27.95V27.8484H28.8H20.2H20.0984V27.95C20.0984 31.4548 17.2548 34.2984 13.75 34.2984C10.2452 34.2984 7.40156 31.4548 7.40156 27.95V27.8484H7.3H6.225C4.50062 27.8484 3.10156 26.4494 3.10156 24.725V3.225C3.10156 1.50062 4.50062 0.101562 6.225 0.101562H27.725C29.4494 0.101562 30.8484 1.50062 30.8484 3.225V6.45V6.55156H30.95H33.913C34.739 6.55156 35.533 6.88332 36.1188 7.46916L42.8308 14.1812C43.4167 14.767 43.7484 15.561 43.7484 16.387V23.65ZM40.625 17.3016H40.7266V17.2V16.387V16.345L40.6968 16.3152L33.9848 9.60318L33.955 9.57344H33.913H30.95H30.8484V9.675V17.2V17.3016H30.95H40.625ZM10.4234 27.95C10.4234 29.7866 11.9134 31.2766 13.75 31.2766C15.5866 31.2766 17.0766 29.7866 17.0766 27.95C17.0766 26.1134 15.5866 24.6234 13.75 24.6234C11.9134 24.6234 10.4234 26.1134 10.4234 27.95ZM31.9234 27.95C31.9234 29.7866 33.4134 31.2766 35.25 31.2766C37.0866 31.2766 38.5766 29.7866 38.5766 27.95C38.5766 26.1134 37.0866 24.6234 35.25 24.6234C33.4134 24.6234 31.9234 26.1134 31.9234 27.95Z" fill="#FED306" stroke="black" stroke-width="0.203125"/>
<path d="M24 48L19.6699 24.75H28.3301L24 48Z" fill="#FED306"/>
</svg>
