<svg width="88" height="58" viewBox="0 0 88 58" fill="none" xmlns="http://www.w3.org/2000/svg">
<line x1="2.2072" y1="51.4131" x2="13.2715" y2="51.3178" stroke="white" stroke-width="2"/>
<line x1="3.97264" y1="13.8169" x2="4.17503" y2="50.3441" stroke="white" stroke-width="2"/>
<line x1="2.97559" y1="13.3498" x2="74.2541" y2="12.8196" stroke="white" stroke-width="2"/>
<line x1="74.1775" y1="13.0131" x2="74.1606" y2="17.4694" stroke="white" stroke-width="2"/>
<line x1="74.1016" y1="17.1254" x2="79.3737" y2="31.6979" stroke="white" stroke-width="2"/>
<line x1="78.7676" y1="31.0957" x2="86.25" y2="33.7492" stroke="white" stroke-width="2"/>
<line x1="85.9534" y1="33.7638" x2="85.9534" y2="50.3017" stroke="white" stroke-width="2"/>
<mask id="path-8-inside-1" fill="white">
<path d="M26.8317 51.7663C26.8317 55.209 23.7981 57.9999 20.056 57.9999C16.3139 57.9999 13.2803 55.209 13.2803 51.7663C13.2803 48.3236 16.3139 45.5327 20.056 45.5327C23.7981 45.5327 26.8317 48.3236 26.8317 51.7663ZM19.2993 51.7663C19.2993 52.1508 19.6381 52.4624 20.056 52.4624C20.4739 52.4624 20.8127 52.1508 20.8127 51.7663C20.8127 51.3818 20.4739 51.0702 20.056 51.0702C19.6381 51.0702 19.2993 51.3818 19.2993 51.7663Z"/>
</mask>
<path d="M26.8317 51.7663C26.8317 55.209 23.7981 57.9999 20.056 57.9999C16.3139 57.9999 13.2803 55.209 13.2803 51.7663C13.2803 48.3236 16.3139 45.5327 20.056 45.5327C23.7981 45.5327 26.8317 48.3236 26.8317 51.7663ZM19.2993 51.7663C19.2993 52.1508 19.6381 52.4624 20.056 52.4624C20.4739 52.4624 20.8127 52.1508 20.8127 51.7663C20.8127 51.3818 20.4739 51.0702 20.056 51.0702C19.6381 51.0702 19.2993 51.3818 19.2993 51.7663Z" stroke="white" stroke-width="4" mask="url(#path-8-inside-1)"/>
<mask id="path-9-inside-2" fill="white">
<path d="M74.8037 51.7663C74.8037 55.209 71.7701 57.9999 68.028 57.9999C64.2859 57.9999 61.2523 55.209 61.2523 51.7663C61.2523 48.3236 64.2859 45.5327 68.028 45.5327C71.7701 45.5327 74.8037 48.3236 74.8037 51.7663ZM67.2713 51.7663C67.2713 52.1508 67.6101 52.4624 68.028 52.4624C68.4459 52.4624 68.7847 52.1508 68.7847 51.7663C68.7847 51.3818 68.4459 51.0702 68.028 51.0702C67.6101 51.0702 67.2713 51.3818 67.2713 51.7663Z"/>
</mask>
<path d="M74.8037 51.7663C74.8037 55.209 71.7701 57.9999 68.028 57.9999C64.2859 57.9999 61.2523 55.209 61.2523 51.7663C61.2523 48.3236 64.2859 45.5327 68.028 45.5327C71.7701 45.5327 74.8037 48.3236 74.8037 51.7663ZM67.2713 51.7663C67.2713 52.1508 67.6101 52.4624 68.028 52.4624C68.4459 52.4624 68.7847 52.1508 68.7847 51.7663C68.7847 51.3818 68.4459 51.0702 68.028 51.0702C67.6101 51.0702 67.2713 51.3818 67.2713 51.7663Z" stroke="white" stroke-width="4" mask="url(#path-9-inside-2)"/>
<line x1="3.17493" y1="51.2537" x2="2.21527" y2="51.2537" stroke="white" stroke-width="2"/>
<line x1="3.21591" y1="50.277" x2="3.16801" y2="52.3317" stroke="white" stroke-width="2"/>
<path d="M12.5173 30.4413V21.2938H43.0401V29.789L12.5173 30.4413Z" stroke="white" stroke-width="2"/>
<mask id="path-13-inside-3" fill="white">
<rect x="65.0602" y="20.2458" width="4.87605" height="11.1691" rx="0.47936"/>
</mask>
<rect x="65.0602" y="20.2458" width="4.87605" height="11.1691" rx="0.47936" stroke="white" stroke-width="4" mask="url(#path-13-inside-3)"/>
<path d="M72.2357 20.0563L72.071 31.4626" stroke="white" stroke-width="2"/>
<line x1="71.6783" y1="30.4628" x2="75.9863" y2="30.4628" stroke="white" stroke-width="2"/>
<path d="M76.0231 31.4392L72.2286 20.1915" stroke="white" stroke-width="2"/>
<line x1="84.9534" y1="49.3017" x2="85.913" y2="49.3017" stroke="white" stroke-width="2"/>
<line x1="86.9158" y1="50.2092" x2="86.9087" y2="52.3184" stroke="white" stroke-width="2"/>
<path d="M26.8062 51.8448L61.5235 51.8448" stroke="white" stroke-width="2"/>
<path d="M74.2618 51.7664L85.9163 51.821" stroke="white" stroke-width="2"/>
<line x1="6.85962" y1="13.2804" x2="6.85962" y2="2.19345e-05" stroke="white" stroke-width="2"/>
<line x1="7.92508" y1="0.941742" x2="0.336297" y2="3.65202" stroke="white" stroke-width="2"/>
<line x1="0.209529" y1="3.0222" x2="7.79831" y2="4.64837" stroke="white" stroke-width="2"/>
</svg>
